TITLE ""
FILE "P1Q_t_0559-0568.mp3" MP3
  TRACK 01 AUDIO
    TITLE "P1Q_t_0559-0568_01"
    INDEX 01 00:00:00
  TRACK 02 AUDIO
    TITLE "P1Q_t_0559-0568_02"
    INDEX 01 00:01:12
  TRACK 03 AUDIO
    TITLE "P1Q_t_0559-0568_03"
    INDEX 01 00:01:33
  TRACK 04 AUDIO
    TITLE "P1Q_t_0559-0568_04"
    INDEX 01 00:05:19
  TRACK 05 AUDIO
    TITLE "P1Q_t_0559-0568_05"
    INDEX 01 00:05:39
  TRACK 06 AUDIO
    TITLE "P1Q_t_0559-0568_06"
    INDEX 01 00:10:03
  TRACK 07 AUDIO
    TITLE "P1Q_t_0559-0568_07"
    INDEX 01 00:10:50
  TRACK 08 AUDIO
    TITLE "P1Q_t_0559-0568_08"
    INDEX 01 00:11:49
  TRACK 09 AUDIO
    TITLE "P1Q_t_0559-0568_09"
    INDEX 01 00:11:73
  TRACK 10 AUDIO
    TITLE "P1Q_t_0559-0568_10"
    INDEX 01 00:13:05
  TRACK 11 AUDIO
    TITLE "P1Q_t_0559-0568_11"
    INDEX 01 00:13:27
  TRACK 12 AUDIO
    TITLE "P1Q_t_0559-0568_12"
    INDEX 01 00:17:34
  TRACK 13 AUDIO
    TITLE "P1Q_t_0559-0568_13"
    INDEX 01 00:18:04
  TRACK 14 AUDIO
    TITLE "P1Q_t_0559-0568_14"
    INDEX 01 00:19:23
  TRACK 15 AUDIO
    TITLE "P1Q_t_0559-0568_15"
    INDEX 01 00:19:45
  TRACK 16 AUDIO
    TITLE "P1Q_t_0559-0568_16"
    INDEX 01 00:21:36
  TRACK 17 AUDIO
    TITLE "P1Q_t_0559-0568_17"
    INDEX 01 00:21:58
  TRACK 18 AUDIO
    TITLE "P1Q_t_0559-0568_18"
    INDEX 01 00:26:25
  TRACK 19 AUDIO
    TITLE "P1Q_t_0559-0568_19"
    INDEX 01 00:26:70
  TRACK 20 AUDIO
    TITLE "P1Q_t_0559-0568_20"
    INDEX 01 00:28:13
  TRACK 21 AUDIO
    TITLE "P1Q_t_0559-0568_21"
    INDEX 01 00:28:32
  TRACK 22 AUDIO
    TITLE "P1Q_t_0559-0568_22"
    INDEX 01 00:29:35
  TRACK 23 AUDIO
    TITLE "P1Q_t_0559-0568_23"
    INDEX 01 00:29:55
  TRACK 24 AUDIO
    TITLE "P1Q_t_0559-0568_24"
    INDEX 01 00:34:27
  TRACK 25 AUDIO
    TITLE "P1Q_t_0559-0568_25"
    INDEX 01 00:34:74
  TRACK 26 AUDIO
    TITLE "P1Q_t_0559-0568_26"
    INDEX 01 00:36:18
  TRACK 27 AUDIO
    TITLE "P1Q_t_0559-0568_27"
    INDEX 01 00:36:39
  TRACK 28 AUDIO
    TITLE "P1Q_t_0559-0568_28"
    INDEX 01 00:38:42
  TRACK 29 AUDIO
    TITLE "P1Q_t_0559-0568_29"
    INDEX 01 00:38:64
  TRACK 30 AUDIO
    TITLE "P1Q_t_0559-0568_30"
    INDEX 01 00:44:25
  TRACK 31 AUDIO
    TITLE "P1Q_t_0559-0568_31"
    INDEX 01 00:44:70
  TRACK 32 AUDIO
    TITLE "P1Q_t_0559-0568_32"
    INDEX 01 00:46:06
  TRACK 33 AUDIO
    TITLE "P1Q_t_0559-0568_33"
    INDEX 01 00:46:26
  TRACK 34 AUDIO
    TITLE "P1Q_t_0559-0568_34"
    INDEX 01 00:49:07
  TRACK 35 AUDIO
    TITLE "P1Q_t_0559-0568_35"
    INDEX 01 00:49:26
  TRACK 36 AUDIO
    TITLE "P1Q_t_0559-0568_36"
    INDEX 01 00:53:65
  TRACK 37 AUDIO
    TITLE "P1Q_t_0559-0568_37"
    INDEX 01 00:54:37
  TRACK 38 AUDIO
    TITLE "P1Q_t_0559-0568_38"
    INDEX 01 00:55:62
  TRACK 39 AUDIO
    TITLE "P1Q_t_0559-0568_39"
    INDEX 01 00:56:09
  TRACK 40 AUDIO
    TITLE "P1Q_t_0559-0568_40"
    INDEX 01 00:58:53
  TRACK 41 AUDIO
    TITLE "P1Q_t_0559-0568_41"
    INDEX 01 00:58:74
  TRACK 42 AUDIO
    TITLE "P1Q_t_0559-0568_42"
    INDEX 01 01:02:64
  TRACK 43 AUDIO
    TITLE "P1Q_t_0559-0568_43"
    INDEX 01 01:03:34
  TRACK 44 AUDIO
    TITLE "P1Q_t_0559-0568_44"
    INDEX 01 01:04:59
  TRACK 45 AUDIO
    TITLE "P1Q_t_0559-0568_45"
    INDEX 01 01:05:04
  TRACK 46 AUDIO
    TITLE "P1Q_t_0559-0568_46"
    INDEX 01 01:07:71
  TRACK 47 AUDIO
    TITLE "P1Q_t_0559-0568_47"
    INDEX 01 01:08:16
  TRACK 48 AUDIO
    TITLE "P1Q_t_0559-0568_48"
    INDEX 01 01:12:02
  TRACK 49 AUDIO
    TITLE "P1Q_t_0559-0568_49"
    INDEX 01 01:12:49
  TRACK 50 AUDIO
    TITLE "P1Q_t_0559-0568_50"
    INDEX 01 01:14:01
  TRACK 51 AUDIO
    TITLE "P1Q_t_0559-0568_51"
    INDEX 01 01:14:24
  TRACK 52 AUDIO
    TITLE "P1Q_t_0559-0568_52"
    INDEX 01 01:15:39
  TRACK 53 AUDIO
    TITLE "P1Q_t_0559-0568_53"
    INDEX 01 01:15:59
  TRACK 54 AUDIO
    TITLE "P1Q_t_0559-0568_54"
    INDEX 01 01:20:27
  TRACK 55 AUDIO
    TITLE "P1Q_t_0559-0568_55"
    INDEX 01 01:20:74
  TRACK 56 AUDIO
    TITLE "P1Q_t_0559-0568_56"
    INDEX 01 01:22:16
  TRACK 57 AUDIO
    TITLE "P1Q_t_0559-0568_57"
    INDEX 01 01:22:36
  TRACK 58 AUDIO
    TITLE "P1Q_t_0559-0568_58"
    INDEX 01 01:24:56
  TRACK 59 AUDIO
    TITLE "P1Q_t_0559-0568_59"
    INDEX 01 01:25:01
  TRACK 60 AUDIO
    TITLE "P1Q_t_0559-0568_60"
    INDEX 01 01:28:68
